<svg width="1351" height="724" viewBox="0 0 1351 724" fill="none" xmlns="http://www.w3.org/2000/svg">
<path d="M67.4667 1.3028C57.6 2.50281 54.8 3.83612 51.0667 9.16943C47.3333 14.5028 42.2667 35.0361 41.2 49.8361C39.0667 77.5695 47.4667 112.236 60 127.703L62.5333 130.903L73.2 123.169C78.9333 118.903 83.8667 115.303 84.1333 115.169C84.2667 115.036 82.1333 110.236 79.2 104.503C71.8667 90.1028 69.3333 78.6361 69.3333 58.7695C69.3333 49.8361 69.7333 41.9695 70.4 41.4362C73.0667 38.7695 84.2667 58.6361 88.6667 73.8361C92.2667 86.7695 92.9333 113.436 89.8667 124.503C85.0667 141.569 74.8 155.169 61.8667 161.703C50 167.703 41.3333 169.303 23.2 168.903L6.66667 168.503L3.33333 180.103L0 191.569L6.4 200.769C10 205.703 20.4 217.303 29.4667 226.369L46.2667 242.903L41.0667 247.036C38.1333 249.303 34 252.769 31.8667 254.636L27.8667 258.103L32 263.303C38.6667 271.836 61.6 293.436 72.8 301.836C81.4667 308.369 83.0667 310.103 82.4 312.369C80.5333 317.969 80.1333 356.103 81.6 373.436C84.8 408.769 90 432.769 106.533 488.903C124.4 549.303 126.667 559.436 125.333 576.903C124.533 587.969 119.467 604.103 115.467 607.969C113.2 610.236 112.533 610.236 101.733 607.836C77.3333 602.369 62 603.169 46.2667 610.636C35.3333 615.836 23.4667 628.503 16.2667 642.636C11.4667 652.236 3.33333 677.169 1.06667 689.303L0.133333 694.103L19.8667 695.836C77.8667 700.903 124.267 690.103 168.4 661.436C203.2 638.903 234 605.703 268.8 553.436C284.533 529.703 285.2 529.036 288.933 529.703C290.933 530.103 296.8 530.503 301.867 530.503C311.067 530.503 311.067 530.503 311.067 534.103C311.067 548.103 320.267 595.169 326.533 613.703C328.267 618.769 329.733 623.169 329.733 623.436C329.733 623.703 326.667 623.836 322.933 623.836C319.2 623.836 310.667 625.036 304.133 626.636C278.667 632.636 259.2 651.836 248.933 681.169C245.2 691.836 238.667 718.503 239.6 719.436C240.4 720.236 274 722.369 302.4 723.303C331.467 724.369 349.2 722.769 366.933 717.703C383.733 712.769 392.933 707.436 405.2 695.169C417.067 683.436 420.4 677.969 423.067 665.836C426.667 648.503 443.2 613.169 475.6 553.169C484.133 537.436 491.067 523.969 491.067 523.436C491.067 522.769 491.6 522.503 492.4 522.769C494.133 523.303 520 560.636 523.867 568.236C528.4 576.903 531.467 589.836 530.4 595.303L529.6 599.836H509.2C498 599.836 485.333 600.503 480.933 601.303C451.867 606.636 439.067 628.503 443.2 665.703L444.8 680.236L470.933 679.436C501.867 678.636 538.667 673.569 553.067 668.369C579.333 658.769 602.667 639.703 621.6 611.836C633.6 594.369 641.067 579.703 651.733 552.236C652 551.703 690 567.836 702.4 573.703C718.933 581.569 728.933 588.236 738.533 597.703C746.4 605.703 753.2 616.103 751.867 618.369C750.933 619.836 738.533 622.103 726.4 623.169C706.667 624.903 696.933 626.769 689.6 630.503C668.667 641.169 665.2 650.769 671.2 681.436L674.133 695.703L684.133 696.636C699.733 698.103 760.4 696.369 779.067 693.969C808.933 689.969 836 682.769 852.667 674.369C857.467 671.969 862.533 668.636 875.6 659.569C876.267 659.169 874.133 654.636 870.8 649.569C849.333 616.903 839.6 586.236 822.533 498.503C810.8 437.836 808.133 423.569 808.667 423.036C808.933 422.769 812.4 427.569 816.4 433.569C863.6 504.103 930.133 567.169 994.4 602.236C1047.07 630.903 1105.87 644.503 1158.27 639.969C1219.2 634.769 1268.27 614.369 1334.27 566.636L1350.13 555.303L1328.93 552.369C1302.27 548.903 1290.67 546.236 1269.73 539.169C1194.53 513.703 1077.73 447.703 939.067 352.236C858.4 296.769 764.133 225.969 719.467 187.436C712 181.036 700.533 172.369 694.133 168.369C679.733 159.303 636.267 137.836 619.067 131.303C588.933 119.969 528.133 107.969 489.333 105.703C475.733 104.903 473.733 104.503 474.4 102.636C477.867 93.8361 479.467 81.4362 479.6 64.5028C479.6 42.3694 476.8 25.5695 471.067 13.7028C465.467 2.23615 462.267 1.16943 434.133 0.236145C411.067 -0.563843 398.667 0.636108 383.067 5.43616C370.533 9.3028 353.333 18.1028 341.067 26.7695C335.2 31.0361 329.6 34.5028 328.8 34.5028C327.867 34.5028 323.2 33.0361 318.4 31.1694C300.667 24.5028 284.267 21.8361 260.4 21.8361C236 21.8361 223.467 23.8361 202.533 30.6361L190.133 34.7695L179.6 27.1694C161.733 14.2361 142.133 5.56946 122.933 1.83612C111.333 -0.29718 82 -0.697205 67.4667 1.3028ZM123.067 31.3028C131.867 33.3028 153.333 43.0361 158.8 47.4362L161.867 49.9695L152.8 56.7695C147.867 60.5028 142.4 65.0361 140.8 66.7695L137.867 69.8361L148 80.2361L158.133 90.5028L164 85.5695C172.267 78.3694 179.467 73.3028 181.2 73.1695C183.333 73.1695 201.333 101.169 205.333 110.636C208 117.169 208.8 121.436 208.8 128.903C208.667 134.236 208.4 138.903 208.133 139.169C207.867 139.436 204.667 138.903 201.067 137.836C192 135.036 177.067 135.303 166.933 138.503C152.267 142.903 121.733 160.103 109.733 170.503C108 171.969 104 175.169 100.933 177.569C97.7333 179.836 87.6 189.436 78.4 198.769C69.0667 208.236 61.2 215.836 60.6667 215.836C59.6 215.836 41.7333 198.903 41.7333 198.103C41.7333 197.703 44.5333 197.036 48 196.503C51.3333 195.969 58.2667 194.236 63.3333 192.503C90.9333 183.169 109.733 161.436 117.733 129.836C125.067 100.769 119.2 61.3028 103.733 37.1694C101.2 33.1694 99.0667 29.3028 99.0667 28.6361C99.0667 27.3028 111.2 28.6361 123.067 31.3028ZM415.6 36.5028C399.733 65.3028 396.533 99.7028 406.667 131.836C416.133 161.836 438.667 184.103 467.733 191.969C473.6 193.436 478.533 194.903 478.8 195.169C478.933 195.303 473.733 199.036 467.2 203.569L455.2 211.569L439.467 195.969C411.867 168.369 382.133 147.836 357.067 139.169C345.2 135.036 325.6 135.036 314.667 139.303C311.733 140.369 310.267 129.703 312.267 120.103C314.4 109.703 323.6 93.0361 336.267 77.1695L338.933 73.8361L342.4 77.1695L346 80.5028L356 69.8361L366 59.1694L361.867 55.5695C359.6 53.5695 357.733 51.4362 357.733 50.9028C357.733 48.6361 380.133 36.5028 390.267 33.1694C395.733 31.4362 412.533 28.1028 417.333 27.9695C420.267 27.8361 420.267 28.1028 415.6 36.5028ZM451.467 63.1695C451.6 81.4362 449.867 90.3694 444.133 101.836C440.4 109.169 432.8 117.436 431.6 115.569C431.067 114.636 430.4 107.836 430 100.369C429.067 78.2361 432.933 62.3694 443.333 46.3694L448.8 37.8361L450 41.8361C450.667 43.9695 451.333 53.5695 451.467 63.1695ZM519.067 137.169C556.133 142.636 594.133 151.569 613.067 159.169C661.2 178.503 704.4 206.769 722.533 231.036C729.867 240.636 741.867 263.836 747.467 279.169C758.533 309.169 766 342.103 778.4 417.169C788 475.436 804.8 558.636 812.267 585.036L816 598.369L809.6 601.703C801.867 605.969 786.533 611.836 783.2 611.836C781.467 611.836 780 609.703 778 604.636C772.667 590.769 763.867 579.569 749.2 567.969C735.733 557.569 718 548.236 686.4 535.169C614.267 505.436 596.8 490.103 588.4 449.169C578.133 398.769 599.467 324.236 636.933 279.303L642.4 272.769L631.867 262.903C626 257.569 620.933 253.169 620.533 253.169C618.933 253.303 604.133 273.169 596.667 285.436C583.2 307.036 571.2 335.836 564.533 361.969C556.533 393.703 555.333 419.169 559.867 454.103L560.667 459.569L551.467 464.903C546.533 467.703 538.533 471.703 533.733 473.569C525.467 476.769 515.067 479.436 515.067 478.236C515.067 477.969 517.467 472.903 520.4 466.903C529.6 447.969 540 423.169 544.267 409.969C550.533 390.369 554.533 363.969 551.467 362.103C550.8 361.703 547.067 361.969 543.067 362.503C539.067 363.169 532.933 363.969 529.6 364.503L523.467 365.303L522.667 374.903C520.8 398.903 502 443.436 464.4 513.169C448.267 543.036 438.4 561.703 429.467 579.303L421.2 595.569L415.333 596.369C400.533 598.369 380.267 596.369 367.733 591.703C363.6 590.103 357.067 586.369 353.333 583.303C347.067 578.236 346.4 577.036 344.8 569.569C334.4 518.103 333.733 413.969 343.6 390.369C344.267 388.769 341.6 386.503 332.667 380.769C326.133 376.503 320.4 373.169 320 373.169C319.733 373.169 318.8 374.769 318 376.769C312.267 391.303 309.733 414.769 308.8 461.436L308 502.503L295.733 501.836C264.667 500.236 230.267 484.903 210.933 464.236C196.933 449.169 185.2 430.636 179.6 414.769C178.267 411.036 176.667 407.836 176 407.836C174.667 407.836 150.8 414.636 149.467 415.303C148.667 415.836 154.133 431.303 158.8 441.169C163.6 451.836 178.8 472.903 188.933 483.036C205.333 499.703 225.867 513.036 246.4 520.503C250.133 521.836 253.333 523.169 253.467 523.303C254.4 523.969 229.2 560.503 219.333 572.903C206.133 589.569 190.533 607.036 185.733 610.503C182 613.169 181.6 613.169 177.467 611.036C172.4 608.503 159.733 599.303 155.467 594.903C152.533 592.103 152.533 591.436 153.733 581.969C154.933 574.236 154.667 568.503 153.2 556.369C150.533 536.636 148.4 528.369 129.733 466.503C123.467 445.703 116.667 417.303 113.733 399.703C110.667 381.436 108 339.703 109.2 330.903L110 325.303L114.933 327.703C126.8 333.569 149.867 340.769 165.2 343.169L170.8 343.969L171.6 337.969C172.133 334.636 172.8 331.836 173.067 331.836C173.333 331.836 177.6 334.903 182.533 338.636C197.467 349.969 221.867 361.036 241.067 365.169C268.267 371.169 306.4 360.903 336 339.836C342.133 335.436 347.467 331.836 347.733 331.836C348.133 331.836 348.4 334.503 348.4 337.836C348.4 344.903 348.133 344.903 364.533 341.303C396.533 334.236 428 318.636 455.067 296.503C459.867 292.503 470.533 282.503 478.8 273.969L494 258.636L488.8 254.236C486 251.703 480.8 247.303 477.333 244.503L470.8 239.303L466.4 244.636C463.333 248.236 462.533 250.103 463.467 250.903C465.467 252.236 457.467 259.569 438.4 273.703C412.133 293.169 398.8 300.903 378 308.369C363.733 313.436 363.6 313.303 368.933 302.769C373.733 293.169 377.733 276.103 377.733 265.303C377.733 254.103 374 240.903 367.2 227.303C363.467 219.969 360.667 213.969 360.8 213.969C365.467 212.769 379.067 203.969 384.933 198.236L392.933 190.503L402.533 197.969C414 206.636 430.4 223.703 428.8 225.169C428.267 225.703 423.6 227.569 418.4 229.169C413.333 230.903 408.533 232.769 408 233.303C406.933 234.103 412.8 257.969 414.267 259.569C416.4 261.703 456 245.569 469.467 237.036C487.6 225.703 501.333 214.903 513.467 202.769C520.133 195.836 525.733 189.703 525.733 189.169C525.733 188.503 523.867 183.169 521.6 177.303L517.467 166.503H503.2C486 166.503 475.467 164.769 466 160.236C458 156.503 441.067 141.036 442 138.369C443.867 132.769 486 132.103 519.067 137.169ZM241.6 154.103C242.4 161.303 243.333 180.103 243.867 195.836C244.267 211.569 244.8 226.103 245.067 228.103C245.333 231.036 244.533 232.103 241.2 233.703C236.8 235.836 230.933 241.436 228.667 245.836C225.467 252.236 225.467 259.703 228.4 265.836C232.267 273.703 237.867 277.969 248.4 280.636C272.4 286.769 293.733 274.903 293.733 255.569C293.733 246.369 285.467 236.103 276.133 233.836C271.867 232.769 272 233.436 273.733 218.503C274.533 212.236 276 198.103 277.067 187.169C279.467 162.769 282 145.169 283.2 145.169C283.733 145.169 284.533 147.303 284.933 149.969C286.667 158.503 298.933 180.369 311.2 196.503C339.733 233.969 342.8 238.769 346.4 250.903C349.867 262.903 348.8 279.569 344 289.569C331.067 315.836 284.4 341.036 254.133 337.969C223.467 334.903 183.467 309.169 175.2 287.169C166.533 263.836 172.533 243.436 197.067 212.503C223.067 179.969 237.467 153.703 237.867 138.636C238 131.569 240.267 140.636 241.6 154.103ZM175.067 173.436C176.8 176.769 176.8 177.569 175.067 180.769C171.067 188.103 159.067 185.436 159.067 177.436C159.067 168.903 170.8 165.969 175.067 173.436ZM351.333 170.769C354 172.903 354.533 175.436 353.333 180.103C352.267 184.369 347.2 186.236 341.867 184.369C339.067 183.303 338.267 182.103 338 177.836C337.6 173.969 338.133 172.103 339.867 170.903C342.933 168.769 348.533 168.636 351.333 170.769ZM136.533 198.769C141.467 203.569 148.4 208.636 152.533 210.503C156.4 212.236 160 213.836 160.267 214.103C160.533 214.236 159.467 215.969 158 218.103C140.8 242.503 138.4 279.836 152.533 304.903L156.533 312.103L152.133 311.169C137.333 307.969 109.2 293.969 91.8667 281.036C80.4 272.503 58.6667 253.169 59.4667 252.236C59.7333 251.969 64.9333 254.769 70.8 258.369C82.6667 265.836 106.4 276.369 108.8 275.436C110.267 274.903 117.733 254.236 117.733 250.769C117.733 249.836 116.667 249.169 115.467 249.169C114.267 249.169 106.4 245.836 98.1333 241.703L83.2 234.236L86.9333 228.636C93.0667 219.836 106.933 205.969 117.733 197.969C123.2 193.836 127.733 190.503 127.733 190.503C127.733 190.503 131.733 194.236 136.533 198.769ZM845.733 321.569C853.467 327.303 861.067 332.769 862.533 333.836C865.2 335.836 865.467 337.303 865.867 360.236C866.533 388.503 866.133 433.969 865.2 437.836C864.933 439.303 864.533 442.503 864.533 444.903C864.4 447.436 863.867 449.036 863.067 448.503C861.067 447.303 840.267 417.836 830.933 403.169C805.867 363.303 796.4 342.769 785.733 305.169C782 291.569 777.733 277.703 776.533 274.369L774.133 268.236L802.933 289.836C818.8 301.703 838 315.969 845.733 321.569ZM910.4 366.769C922 375.036 922.4 375.436 924.133 382.503C925.067 386.503 926.133 398.236 926.533 408.503C927.467 430.236 925.333 449.969 919.067 476.769C913.333 501.303 912.533 503.836 910.667 502.903C909.733 502.503 903.867 496.636 897.6 489.969L886 477.703L889.067 464.369C893.733 443.569 895.6 416.769 894.533 384.103C893.6 356.769 893.6 355.703 896 357.036C897.333 357.703 903.733 362.103 910.4 366.769ZM980.4 414.769C998.267 426.769 1001.6 429.569 1005.2 435.569C1018.67 457.969 1017.47 505.836 1002.13 549.569C994.4 572.103 996.8 571.036 978.267 558.636C964.933 549.703 942.4 532.636 936.8 527.036C935.6 525.836 935.733 524.103 937.2 519.036C947.733 484.103 953.733 450.769 954.667 421.569C955.333 400.903 955.6 398.769 957.6 399.836C958.8 400.503 969.067 407.303 980.4 414.769ZM1055.6 462.769C1067.87 472.903 1073.07 511.969 1066.4 543.169C1062.53 561.169 1054 582.903 1047.2 591.703L1044.8 594.769L1031.87 589.169C1024.4 585.836 1019.2 582.903 1019.6 581.969C1029.33 559.303 1035.73 538.236 1039.87 514.503C1042.27 501.036 1043.07 461.836 1041.2 455.969L1040.13 452.903L1045.6 455.969C1048.53 457.569 1053.07 460.636 1055.6 462.769ZM1108.4 493.836C1117.47 499.303 1131.33 507.036 1138.53 510.769L1144 513.436L1147.07 528.769C1150.67 546.503 1151.33 575.036 1148.53 588.503C1146.67 597.436 1143.33 607.569 1141.33 610.103C1138.67 613.703 1102.93 611.036 1082.53 605.836C1078.13 604.636 1074.4 603.569 1074.27 603.436C1074.13 603.303 1076.27 598.369 1079.2 592.503C1091.47 567.169 1097.87 537.836 1097.2 510.503C1096.93 501.303 1096.27 492.103 1095.73 489.969C1094.8 486.369 1094.8 486.236 1097.87 487.836C1099.6 488.769 1104.4 491.436 1108.4 493.836ZM572.667 492.903C578.667 505.836 598.8 525.036 617.2 535.303C621.867 537.969 625.733 540.236 625.733 540.636C625.733 545.036 609.6 578.769 601.467 591.303C592.933 604.236 578.533 621.036 575.733 621.169C574.933 621.169 570.8 617.569 566.4 613.169L558.4 605.036L558.8 593.436C559.467 574.769 552.933 557.836 535.6 533.703C524.8 518.636 517.467 507.703 518 507.436C518.133 507.169 523.867 505.836 530.4 504.103C537.067 502.503 548.4 498.236 555.733 494.636C563.067 491.036 569.333 487.969 569.733 487.969C570.133 487.969 571.467 490.103 572.667 492.903ZM1189.47 536.369C1206.93 545.169 1234.4 556.636 1256.93 564.503L1276.8 571.436L1270.93 574.769C1250.93 586.103 1231.6 594.769 1213.47 600.503C1202.13 604.103 1173.47 610.636 1172.67 609.969C1172.4 609.703 1173.2 605.969 1174.27 601.703C1179.07 582.769 1180.13 555.703 1176.93 535.569C1176.4 532.769 1176.4 530.503 1176.93 530.503C1177.33 530.503 1183.07 533.169 1189.47 536.369Z" fill="black"/>
</svg>
