<svg width="32" height="30" viewBox="0 0 32 30" fill="none" xmlns="http://www.w3.org/2000/svg">
<path d="M15.6325 1.53874C16.0368 1.13495 16.5848 0.908142 17.1562 0.908142C17.7277 0.908142 18.2757 1.13495 18.68 1.53874L30.8987 13.7575C31.3025 14.1618 31.5294 14.7098 31.5294 15.2812C31.5294 15.8527 31.3025 16.4007 30.8987 16.805L18.68 29.0237C18.271 29.4044 17.7304 29.6117 17.1717 29.6021C16.613 29.5924 16.0799 29.3666 15.6842 28.972C15.2897 28.5764 15.0638 28.0432 15.0542 27.4846C15.0445 26.9259 15.2518 26.3852 15.6325 25.9762L24.1712 17.4375H2.78125C2.20938 17.4375 1.66093 17.2103 1.25655 16.8059C0.852175 16.4016 0.625 15.8531 0.625 15.2812C0.625 14.7094 0.852175 14.1609 1.25655 13.7565C1.66093 13.3522 2.20938 13.125 2.78125 13.125H24.1712L15.6325 4.58625C15.2287 4.18195 15.0019 3.6339 15.0019 3.06249C15.0019 2.49109 15.2287 1.94304 15.6325 1.53874Z" fill="black"/>
</svg>
